<?xml version="1.0" encoding="UTF-8"?>
<svg xmlns="http://www.w3.org/2000/svg" viewBox="0 0 1072.61 1065.57">
  <defs>
    <style>
      .cls-1 {
        fill: #090103;
      }

      .cls-1, .cls-2, .cls-3, .cls-4 {
        stroke: #fff;
        stroke-miterlimit: 10;
        stroke-width: 2px;
      }

      .cls-2 {
        fill: #231815;
      }

      .cls-3 {
        fill: #040000;
      }

      .cls-5 {
        fill: #070001;
      }

      .cls-4 {
        fill: #fff;
      }
    </style>
  </defs>
  <g id="_レイヤー_2" data-name="レイヤー 2">
    <g id="_レイヤー_11" data-name=" レイヤー 11">
      <g>
        <polygon class="cls-1" points="779.45 497.04 779.41 497.04 741.67 466.07 718.88 484.78 756.63 515.75 731.36 536.48 691.56 503.82 789.4 423.53 766.61 404.82 645.99 503.82 668.77 522.53 725.7 569.25 725.7 569.25 731.36 573.9 802.23 515.75 779.45 497.04"/>
        <polygon class="cls-1" points="545.51 444.62 521.72 425.84 566.93 395.2 588.23 411.02 545.51 444.62"/>
        <polygon class="cls-1" points="511.26 283.4 545.76 255.06 581.24 284.19 549.15 310.51 571.97 329.22 626.81 284.19 626.41 283.87 548.76 220.13 548.61 220.24 545.62 217.79 467.93 281.56 465.73 283.4 629.11 412.28 651.9 393.61 511.26 283.4"/>
        <polygon class="cls-1" points="716.14 446.35 693.36 465.03 652.11 431.18 674.9 412.46 716.14 446.35"/>
        <polygon class="cls-1" points="508.31 377.39 485.45 358.75 522.4 328.21 545.26 346.85 508.31 377.39"/>
        <polygon class="cls-1" points="398.78 468.92 375.67 450.57 417.06 415.6 440.17 433.95 398.78 468.92"/>
        <polygon class="cls-1" points="461.87 415.53 439.02 396.85 462.2 377.78 485.02 396.42 461.87 415.53"/>
        <polygon class="cls-1" points="445.94 506.09 423.15 487.38 423.12 487.42 322.14 404.5 299.35 423.21 400.33 506.13 362.23 537.38 336.74 516.47 373.76 486.08 352.83 468.13 291.24 516.4 297.69 521.7 297.62 521.77 362.3 574.84 385.08 556.17 385.01 556.09 445.94 506.09"/>
        <polygon class="cls-1" points="423.19 487.63 446.19 506.13 487.22 471.77 464.22 453.31 423.19 487.63"/>
        <polygon class="cls-1" points="688.35 612.37 711.24 593.77 646.92 540.52 624.03 559.12 688.35 612.37"/>
        <polygon class="cls-1" points="446.59 544.09 469.37 525.38 446.59 506.67 423.8 525.38 446.59 544.09"/>
        <polygon class="cls-1" points="521.43 605.45 544.57 587.1 486.06 537.6 462.92 555.95 521.43 605.45"/>
        <polygon class="cls-1" points="580.52 419.89 557.73 401.18 585.35 378.18 608.13 396.89 580.52 419.89"/>
        <polygon class="cls-1" points="568.12 606.42 545.33 625.1 585.13 657.79 543.85 691.65 503.29 658.37 668.77 522.53 645.99 503.82 457.73 658.37 544.21 728.74 630.59 657.69 568.12 606.42"/>
        <polygon class="cls-1" points="545.87 456.52 382.27 588.25 405.05 606.96 545.55 493.65 601.57 540.09 624.39 521.38 545.87 456.52"/>
        <polygon class="cls-1" points="668.48 485.25 645.7 503.96 604.56 470.22 627.35 451.51 668.48 485.25"/>
        <polygon class="cls-1" points="630.38 376.13 609.11 358.68 661.7 315.49 684.49 334.2 630.38 376.13"/>
        <polygon class="cls-1" points="727.14 369.6 704.35 350.89 545.94 480.06 383.14 350.89 360.35 369.6 544.57 517.7 545.04 517.3 545.51 517.7 727.14 369.6"/>
        <polygon class="cls-1" points="601.32 434.28 545.69 390.29 487.9 434.24 508.45 450.32 545.69 419.89 583.87 448.84 601.32 434.28"/>
        <polygon class="cls-1" points="510.65 416.65 533.51 399.56 429.79 314.44 407 333.15 510.65 416.65"/>
      </g>
      <rect class="cls-4" x="1" y="1" width="1070.61" height="1063.57"/>
    </g>
  </g>
  <g id="_レイヤー_1" data-name="レイヤー 1">
    <g id="_レイヤー_8" data-name=" レイヤー 8">
      <g>
        <path class="cls-5" d="M282.44,836.07c-1.62-2.34-3.03-4.69-4.65-6.92-8.9-12.87-18.42-25.85-28.59-38.68-1.23-1.23,14.38-1.33,15,0,7.28,12.29,16.01,24.73,24.73,37.13,8.51-12.4,17.02-24.84,24.51-37.13.4-1.23,13.59-1.33,12.55,0-10.13,12.87-30.18,41.17-31.4,43.3.22,11.5.4,23.14,1.41,34.57,0,1.23-15,1.12-15,0,1.23-10.64,1.41-21.49,1.41-32.19l.04-.07Z"/>
        <path class="cls-5" d="M398.75,790.43s0-.22.22-.22c.22-.22,14.78-.43,15,.22,4.47,12.87,27.36,64.53,34.25,77.4.61,1.23-14.38,1.12-15,0-2.42-7.03-5.08-14.1-8.11-21.13-5.26-.32-34.43-.32-39.91-.11-2.85,7.17-5.66,14.2-8.11,21.23-.61,1.23-13.16,1.12-12.55,0,6.89-12.87,29.78-64.53,34.25-77.4h-.04ZM387.21,841.66h35.87c-1.84-4.15-3.64-8.4-5.48-12.51-3.86-8.83-8.11-17.77-12.37-26.71-4.47,8.94-8.72,17.88-12.55,26.71-1.84,4.15-3.64,8.4-5.48,12.51h0Z"/>
        <path class="cls-5" d="M503.94,829.58c0-34.47,24.12-40.7,39.3-40.7s39.3,6.27,39.3,40.7-24.12,41.03-39.3,41.03-39.3-6.27-39.3-41.03ZM568.98,829.69c0-30.32-16.62-35.44-25.74-35.44s-25.74,4.94-25.74,35.22,16.62,35.8,25.74,35.8,25.74-5.16,25.74-35.58Z"/>
        <path class="cls-5" d="M708.79,867.83c-8.51-12.87-40.92-55.59-48.85-65.33l.79,4.36c-.22,7.5,0,48.09,1.23,60.96,0,1.23-12.55,1.12-12.55,0,1.23-12.87,1.23-64.53,0-77.4-.22-.68,15-.68,15.61,0,8.51,12.87,39.91,54.58,45.79,61.86,0,0-.61-49.1-1.84-61.97-.4-1.23,12.76-1.33,12.55,0-1.23,12.87-1.23,64.53,0,77.4,0,.79-5.88,1.01-9.52.79-1.62-.11-3.03-.32-3.24-.68h.04Z"/>
        <path class="cls-5" d="M790.48,868.15c.18-12.8-.76-61.07,0-77.73-.22-.79,53.1-.9,53.1-.9,2.24,0,1.41,6.6,0,6.49-14.78-1.12-36.88-1.12-38.5-1.23-.79,11.39-1.01,22.93-1.01,34.32v2.13s20.04-.22,29.99-.54c2.02-.11,2.02,6.71,0,6.6-8.51-.32-27.54-.68-29.99-.68.22,8.94.4,17.56,1.01,26.61h.4c19.25,0,24.91-.11,42.14-.79,2.02-.11,2.02,6.81,0,6.81-16.62-.32-57.14-.11-57.14-1.12v.04Z"/>
      </g>
      <g>
        <polygon class="cls-2" points="779.45 497.04 779.41 497.04 738.93 465.03 716.14 483.74 756.63 515.75 731.36 536.48 691.56 503.82 789.4 423.53 766.61 404.82 645.99 503.82 668.77 522.53 725.7 569.25 725.7 569.25 731.36 573.9 802.23 515.75 779.45 497.04"/>
        <polygon class="cls-2" points="545.51 444.62 521.72 425.84 566.93 395.2 588.23 411.02 545.51 444.62"/>
        <polygon class="cls-2" points="511.26 283.4 545.76 255.06 581.24 284.19 547.4 311.16 570.22 329.87 626.81 284.19 626.41 283.87 548.76 220.13 548.61 220.24 545.62 217.79 467.93 281.56 465.73 283.4 629.11 412.28 651.9 393.61 511.26 283.4"/>
        <polygon class="cls-2" points="716.14 446.35 693.36 465.03 652.11 431.18 674.9 412.46 716.14 446.35"/>
        <polygon class="cls-2" points="508.31 377.39 485.45 358.75 522.4 328.21 545.26 346.85 508.31 377.39"/>
        <polygon class="cls-2" points="398.78 468.92 375.67 450.57 417.06 415.6 440.17 433.95 398.78 468.92"/>
        <polygon class="cls-2" points="461.87 415.53 439.02 396.85 462.2 377.78 485.02 396.42 461.87 415.53"/>
        <polygon class="cls-2" points="445.94 506.09 423.15 487.38 423.12 487.42 322.14 404.5 299.35 423.21 400.33 506.13 362.23 537.38 336.74 516.47 373.76 486.08 352.83 468.13 291.24 516.4 297.69 521.7 297.62 521.77 362.3 574.84 385.08 556.17 385.01 556.09 445.94 506.09"/>
        <polygon class="cls-2" points="423.19 487.63 446.19 506.13 487.22 471.77 464.22 453.31 423.19 487.63"/>
        <polygon class="cls-2" points="688.35 612.37 711.24 593.77 646.92 540.52 624.03 559.12 688.35 612.37"/>
        <polygon class="cls-2" points="446.59 544.09 469.37 525.38 446.59 506.67 423.8 525.38 446.59 544.09"/>
        <polygon class="cls-2" points="521.43 605.45 544.57 587.1 486.06 537.6 462.92 555.95 521.43 605.45"/>
        <polygon class="cls-2" points="580.52 419.89 557.73 401.18 585.35 378.18 608.13 396.89 580.52 419.89"/>
        <polygon class="cls-2" points="568.12 606.42 545.33 625.1 585.13 657.79 543.85 691.65 503.29 658.37 668.77 522.53 645.99 503.82 457.73 658.37 544.21 728.74 630.59 657.69 568.12 606.42"/>
        <polygon class="cls-2" points="545.87 456.52 382.27 588.25 405.05 606.96 545.55 493.65 601.57 540.09 624.39 521.38 545.87 456.52"/>
        <polygon class="cls-2" points="668.48 485.25 645.7 503.96 604.56 470.22 627.35 451.51 668.48 485.25"/>
        <polygon class="cls-2" points="630.38 376.13 609.11 358.68 661.7 315.49 684.49 334.2 630.38 376.13"/>
        <polygon class="cls-3" points="727.14 369.6 704.35 350.89 545.94 480.06 383.14 350.89 360.35 369.6 544.57 517.7 545.04 517.3 545.51 517.7 727.14 369.6"/>
        <polygon class="cls-2" points="601.32 434.28 545.69 390.29 487.9 434.24 508.45 450.32 545.69 419.89 583.87 448.84 601.32 434.28"/>
        <polygon class="cls-2" points="510.65 416.65 533.51 399.56 429.79 314.44 407 333.15 510.65 416.65"/>
      </g>
    </g>
  </g>
</svg>